<svg xmlns="http://www.w3.org/2000/svg" width="26.598" height="26.598" viewBox="0 0 26.598 26.598"><defs><style>.a{fill:#fff;opacity:0.9;}</style></defs><path class="a" d="M13.3,0A13.351,13.351,0,0,0,0,13.3,13.8,13.8,0,0,0,10.182,26.6V22.2a3.2,3.2,0,0,1-3.59-1.6c-.3-.51-.838-1.063-1.4-1.022l-.137-1.552a3.2,3.2,0,0,1,2.873,1.778,1.723,1.723,0,0,0,1,.855,2.1,2.1,0,0,0,1.308-.114,3.653,3.653,0,0,1,.916-1.874h0c-3.464-.517-4.845-2.354-5.392-3.8a6.1,6.1,0,0,1,.947-5.853.209.209,0,0,0,.053-.161A5.1,5.1,0,0,1,6.92,5.448,5.384,5.384,0,0,1,9.871,6.559l.374.224c.156.093.107.04.263.028A11.286,11.286,0,0,1,13.3,6.419a11.335,11.335,0,0,1,2.829.4l.121.012c-.011,0,.033-.008.106-.051,2.7-1.635,2.6-1.1,3.327-1.336a5.188,5.188,0,0,1,.152,3.407c-.079.242,2.341,2.457,1,6.013-.548,1.451-1.928,3.289-5.392,3.806h0a3.42,3.42,0,0,1,.975,2.433V26.6A13.8,13.8,0,0,0,26.6,13.3,13.351,13.351,0,0,0,13.3,0Zm0,0"/></svg>