<svg xmlns="http://www.w3.org/2000/svg" width="26.598" height="26.598" viewBox="0 0 26.598 26.598"><defs><style>.a{opacity:0.8;}</style></defs><g class="a"><path d="M22.7,0H3.9A3.9,3.9,0,0,0,0,3.9V22.7a3.9,3.9,0,0,0,3.9,3.9H22.7a3.9,3.9,0,0,0,3.9-3.9V3.9A3.9,3.9,0,0,0,22.7,0ZM13.351,20.26a7.013,7.013,0,1,1,7.013-7.013A7.021,7.021,0,0,1,13.351,20.26ZM21.143,7.792a2.338,2.338,0,1,1,2.338-2.338A2.34,2.34,0,0,1,21.143,7.792Zm0,0"/><path d="M392.779,90a.779.779,0,1,0,.779.779A.78.78,0,0,0,392.779,90Zm0,0" transform="translate(-371.636 -85.325)"/><path d="M157.455,150a5.455,5.455,0,1,0,5.455,5.455A5.461,5.461,0,0,0,157.455,150Zm0,0" transform="translate(-144.104 -142.208)"/></g></svg>