<svg xmlns="http://www.w3.org/2000/svg" width="32.499" height="26.598" viewBox="0 0 32.499 26.598"><defs><style>.a{fill:#fff;opacity:0.9;}</style></defs><path class="a" d="M12.125,26.6a27.886,27.886,0,0,1-4.307-.342,20.214,20.214,0,0,1-5.892-2.144L0,23.06l2.085-.686c2.279-.749,3.665-1.214,5.381-1.942a7.159,7.159,0,0,1-3.68-4.264L3.3,14.7l.4.061a7.232,7.232,0,0,1-.906-1.117A6.856,6.856,0,0,1,1.63,9.564l.091-1.285.769.3a7.193,7.193,0,0,1-.7-1.954,7.434,7.434,0,0,1,.792-5.005l.67-1.23.9,1.077A16.5,16.5,0,0,0,14.839,7.481a6.392,6.392,0,0,1,.388-3.4,6.358,6.358,0,0,1,2.585-2.964A7.764,7.764,0,0,1,22.318.015,7.2,7.2,0,0,1,26.742,1.84,14.851,14.851,0,0,0,28.361,1.3c.355-.134.758-.285,1.262-.459L31.479.2,30.268,3.658c.08-.007.162-.012.248-.016l1.983-.09-1.172,1.6c-.067.092-.084.118-.108.154-.094.142-.212.319-1.82,2.467a3.03,3.03,0,0,0-.566,1.973,18.659,18.659,0,0,1-1.018,7.5,13.281,13.281,0,0,1-3.565,5.281,15.746,15.746,0,0,1-7.463,3.608,22.976,22.976,0,0,1-4.661.457Zm0,0" transform="translate(0 0)"/></svg>